<?xml version="1.0" standalone="no"?><!DOCTYPE svg PUBLIC "-//W3C//DTD SVG 1.1//EN" "http://www.w3.org/Graphics/SVG/1.1/DTD/svg11.dtd"><svg t="1552023818261" class="icon" style="" viewBox="0 0 1024 1024" version="1.1" xmlns="http://www.w3.org/2000/svg" p-id="1125" xmlns:xlink="http://www.w3.org/1999/xlink" width="200" height="200"><defs><style type="text/css"></style></defs><path d="M382.480427 698.688c-8.661333 0.277333-16.341333 7.786667-17.514667 16.938667-1.088 9.088 4.821333 16.384 13.546667 16.256 8.874667-0.149333 16.896-7.872 18.026666-17.173334 0.917333-9.28-5.397333-16.512-14.058666-16.021333zM323.536427 709.098667c-26.666667 1.258667-50.816 24.512-54.293334 52.565333-3.626667 28.224 15.168 50.858667 42.026667 50.389333 27.242667-0.426667 52.352-24.298667 55.68-53.098666 2.986667-28.864-16.362667-50.986667-43.413333-49.856z" fill="#FFFFFF" p-id="1126"></path><path d="M766.459093 673.685333c-12.202667-127.594667-183.850667-215.530667-383.402666-196.437333-199.552 19.093333-351.424 137.984-339.221334 265.6 12.224 127.594667 183.872 215.552 383.424 196.458667 199.552-19.114667 351.424-138.005333 339.2-265.621334z m-251.136 49.450667c-9.066667 83.029333-89.237333 151.338667-175.850666 150.976-83.605333-0.32-139.562667-64.981333-127.808-142.997333 11.541333-76.522667 84.48-140.885333 165.717333-145.237334 84.053333-4.693333 147.008 55.978667 137.941333 137.258667z" fill="#FFFFFF" p-id="1127"></path><path d="M1022.096427 313.877333c-33.685333-188.224-183.338667-263.786667-287.04-270.997333-19.498667-1.877333-37.610667 9.877333-40.298667 28.714667-2.581333 18.325333 10.538667 36.565333 28.714667 40.298666 67.84 14.976 196.202667 34.730667 230.165333 225.749334 2.965333 19.370667 18.922667 40.021333 43.050667 34.773333 17.664-3.904 33.450667-13.717333 25.408-58.538667zM720.379093 261.290667a24.362667 24.362667 0 0 0-27.498666 17.450666c-3.946667 13.141333 3.328 28.181333 16.682666 30.976 28.373333 5.930667 42.261333 25.493333 46.378667 46.357334 0 0 3.626667 14.144 17.258667 18.048 13.333333 3.818667 37.418667-6.037333 30.485333-32.298667-6.890667-35.733333-42.410667-74.112-83.306667-80.533333z" fill="#E79014" p-id="1128"></path><path d="M737.63776 160.426667c-29.781333-5.141333-43.413333 16.213333-43.413333 33.258666 0 17.024 12.16 29.312 34.602666 35.562667 59.605333 16.533333 97.877333 42.666667 108.373334 111.68 3.050667 20.032 21.354667 30.72 34.645333 30.72 17.941333 0 32.469333-14.549333 32.469333-32.469333 0-0.661333-0.064-1.322667-0.106666-1.962667l0.170666-0.042667c-11.349333-88.533333-77.696-161.365333-166.741333-176.746666z" fill="#E79014" p-id="1129"></path><path d="M731.600427 697.472c-11.968 124.053333-188.842667 223.381333-380.650667 218.496-177.749333-4.394667-296.192-97.984-276.565333-206.570667 19.136-105.472 164.416-196.629333 335.296-206.72 183.552-10.816 333.589333 74.581333 321.92 194.794667z m-27.968-198.805333c-7.082667 0.192-10.069333 1.024-11.136-1.514667-0.874667-2.069333 0.170667-4.330667 3.989333-13.973333 10.645333-26.858667 27.562667-82.069333-7.232-112.874667-22.954667-20.330667-120.149333-35.84-222.570667 35.2-5.098667 3.541333-13.376 11.093333-17.557333 9.706667-4.608-1.557333-5.589333-6.528-6.208-15.914667-3.349333-50.602667 39.210667-191.232-70.570667-179.562667-116.693333 19.754667-274.133333 204.16-319.125333 293.354667-159.68 316.458667 71.232 445.397333 297.109333 452.138667 245.056 7.232 493.312-131.904 525.952-318.037334 21.781333-124.245333-124.48-149.589333-172.650666-148.522666z" fill="#D62629" p-id="1130"></path><path d="M377.38176 585.877333c-81.237333 4.373333-154.176 68.714667-165.717333 145.237334-11.733333 78.016 44.202667 142.677333 127.808 142.997333 86.613333 0.362667 166.784-67.946667 175.850666-150.976 9.066667-81.28-53.888-141.952-137.941333-137.258667z m-10.432 173.077334c-3.328 28.8-28.437333 52.650667-55.68 53.098666-26.88 0.469333-45.674667-22.165333-42.026667-50.389333 3.477333-28.053333 27.626667-51.306667 54.293334-52.565333 27.050667-1.130667 46.4 20.992 43.413333 49.856z m11.562667-27.093334c-8.704 0.128-14.613333-7.168-13.546667-16.256 1.173333-9.130667 8.853333-16.661333 17.514667-16.938666 8.64-0.490667 14.976 6.741333 14.058666 16-1.130667 9.322667-9.152 17.045333-18.026666 17.194666z" fill="#030000" p-id="1131"></path></svg>